<svg xmlns="http://www.w3.org/2000/svg" viewBox="0 0 1600 930" width="1600" height="930" font-family="Noto Sans CJK SC, Source Han Sans SC, sans-serif">
  <rect width="1600" height="930" fill="#F7F9FC"/>
  <defs>
    <marker id="arrow-default" markerWidth="10" markerHeight="10" refX="8" refY="4" orient="auto" markerUnits="strokeWidth">
      <polygon points="0 0, 8 4, 0 8" fill="#555555"/>
    </marker>
    <marker id="arrow-c0" markerWidth="10" markerHeight="10" refX="8" refY="4" orient="auto" markerUnits="strokeWidth">
      <polygon points="0 0, 8 4, 0 8" fill="#EAF2F8"/>
    </marker>
    <marker id="arrow-c1" markerWidth="10" markerHeight="10" refX="8" refY="4" orient="auto" markerUnits="strokeWidth">
      <polygon points="0 0, 8 4, 0 8" fill="#E8F8F5"/>
    </marker>
    <marker id="arrow-c2" markerWidth="10" markerHeight="10" refX="8" refY="4" orient="auto" markerUnits="strokeWidth">
      <polygon points="0 0, 8 4, 0 8" fill="#FEF5E7"/>
    </marker>
    <marker id="arrow-c3" markerWidth="10" markerHeight="10" refX="8" refY="4" orient="auto" markerUnits="strokeWidth">
      <polygon points="0 0, 8 4, 0 8" fill="#F4ECF7"/>
    </marker>
  </defs>
  <rect x="43.0" y="77.0" width="1494.0" height="136.0" fill="#F2F4F4" stroke="#AAB7B8" stroke-width="1" rx="8"/>
  <text x="51.0" y="93.0" font-size="13" fill="#999999" font-weight="bold">原生 Flink：逐条同步状态访问，I/O 位于关键路径</text>
  <rect x="11.0" y="250.0" width="1573.0" height="290.0" fill="#EBF5FB" stroke="#85C1E9" stroke-width="1" rx="8"/>
  <text x="19.0" y="266.0" font-size="13" fill="#999999" font-weight="bold">CacheKit mailbox / operator 主路径</text>
  <rect x="83.5" y="578.5" width="1538.0" height="173.0" fill="#EAFBF7" stroke="#73C6B6" stroke-width="1" rx="8"/>
  <text x="91.5" y="594.5" font-size="13" fill="#999999" font-weight="bold">异步请求平面：与 mailbox 处理和下游等待重叠</text>
  <rect x="154.5" y="761.0" width="1438.5" height="144.0" fill="#F8F9F9" stroke="#AAB7B8" stroke-width="1" rx="8"/>
  <text x="162.5" y="777.0" font-size="13" fill="#999999" font-weight="bold">边界与输出</text>
  <path d="M 225.0,145.0 L 302.5,145.0" stroke="#555555" stroke-width="2" fill="none" marker-end="url(#arrow-default)"/>
  <path d="M 477.5,145.0 L 545.0,145.0" stroke="#555555" stroke-width="2" fill="none" marker-end="url(#arrow-default)"/>
  <path d="M 765.0,145.0 L 830.0,145.0" stroke="#555555" stroke-width="2" fill="none" marker-end="url(#arrow-default)"/>
  <rect x="781.5" y="127.0" width="32.0" height="16" fill="#FFFFFF" rx="3" opacity="0.85"/>
  <text x="797.5" y="139.0" font-size="12" fill="#777777" text-anchor="middle">阻塞</text>
  <path d="M 1020.0,145.0 L 1085.0,145.0" stroke="#555555" stroke-width="2" fill="none" marker-end="url(#arrow-default)"/>
  <path d="M 1275.0,145.0 L 1375.0,145.0" stroke="#555555" stroke-width="2" fill="none" marker-end="url(#arrow-default)"/>
  <path d="M 185.0,390.0 L 210.0,390.0" stroke="#555555" stroke-width="2" fill="none" marker-end="url(#arrow-default)"/>
  <path d="M 450.0,390.0 L 520.0,390.0" stroke="#555555" stroke-width="2" fill="none" marker-end="url(#arrow-default)"/>
  <path d="M 649.3,376.2 L 722.5,357.5" stroke="#E67E22" stroke-width="2" fill="none" marker-end="url(#arrow-default)"/>
  <rect x="671.1" y="348.8" width="29.6" height="16" fill="#FFFFFF" rx="3" opacity="0.85"/>
  <text x="685.9" y="360.8" font-size="12" fill="#777777" text-anchor="middle">YES</text>
  <path d="M 647.0,405.3 L 727.5,429.0" stroke="#1F4E79" stroke-width="2" fill="none" marker-end="url(#arrow-default)"/>
  <rect x="676.1" y="399.1" width="22.4" height="16" fill="#FFFFFF" rx="3" opacity="0.85"/>
  <text x="687.3" y="411.1" font-size="12" fill="#777777" text-anchor="middle">NO</text>
  <path d="M 977.5,354.1 L 1002.5,359.8" stroke="#E67E22" stroke-width="2" fill="none" marker-end="url(#arrow-default)"/>
  <rect x="926.0" y="338.9" width="128.0" height="16" fill="#FFFFFF" rx="3" opacity="0.85"/>
  <text x="990.0" y="350.9" font-size="12" fill="#777777" text-anchor="middle">每 key 一次状态往返</text>
  <path d="M 972.5,432.8 L 1002.5,424.9" stroke="#1F4E79" stroke-width="2" fill="none" marker-end="url(#arrow-default)"/>
  <rect x="959.5" y="410.8" width="56.0" height="16" fill="#FFFFFF" rx="3" opacity="0.85"/>
  <text x="987.5" y="422.8" font-size="12" fill="#777777" text-anchor="middle">逐条消费</text>
  <path d="M 1267.5,390.0 L 1290.0,390.0" stroke="#148F77" stroke-width="2" fill="none" marker-end="url(#arrow-default)"/>
  <rect x="1210.0" y="372.0" width="137.6" height="16" fill="#FFFFFF" rx="3" opacity="0.85"/>
  <text x="1278.8" y="384.0" font-size="12" fill="#777777" text-anchor="middle">cache/staging miss</text>
  <path d="M 1419.0,436.0 Q 1385.0,613.8 1410.9,793.0" stroke="#1F4E79" stroke-width="2" fill="none" marker-end="url(#arrow-default)"/>
  <rect x="1349.2" y="596.2" width="101.6" height="16" fill="#FFFFFF" rx="3" opacity="0.85"/>
  <text x="1400.0" y="608.2" font-size="12" fill="#777777" text-anchor="middle">update / emit</text>
  <path d="M 358.3,431.0 Q 400.3,544.6 491.7,624.0" stroke="#0E9384" stroke-width="2" fill="none" marker-end="url(#arrow-default)" stroke-dasharray="8,4"/>
  <rect x="360.7" y="518.0" width="104.0" height="16" fill="#FFFFFF" rx="3" opacity="0.85"/>
  <text x="412.7" y="530.0" font-size="12" fill="#777777" text-anchor="middle">只读 lookahead</text>
  <path d="M 352.5,665.0 L 395.0,665.0" stroke="#C0392B" stroke-width="2" fill="none" marker-end="url(#arrow-default)" stroke-dasharray="8,4"/>
  <rect x="339.8" y="647.0" width="68.0" height="16" fill="#FFFFFF" rx="3" opacity="0.85"/>
  <text x="373.8" y="659.0" font-size="12" fill="#777777" text-anchor="middle">可选 gate</text>
  <path d="M 645.0,665.0 L 690.0,665.0" stroke="#555555" stroke-width="2" fill="none" marker-end="url(#arrow-default)"/>
  <path d="M 880.0,665.0 L 912.5,665.0" stroke="#7D3C98" stroke-width="2" fill="none" marker-end="url(#arrow-default)"/>
  <rect x="853.9" y="647.0" width="84.8" height="16" fill="#FFFFFF" rx="3" opacity="0.85"/>
  <text x="896.2" y="659.0" font-size="12" fill="#777777" text-anchor="middle">ARM 且可摊销</text>
  <path d="M 798.9,622.3 Q 846.3,573.4 836.7,506.0" stroke="#7D3C98" stroke-width="2" fill="none" marker-end="url(#arrow-default)" stroke-dasharray="8,4"/>
  <rect x="798.0" y="550.8" width="68.0" height="16" fill="#FFFFFF" rx="3" opacity="0.85"/>
  <text x="832.0" y="562.8" font-size="12" fill="#777777" text-anchor="middle">否则 Java</text>
  <path d="M 1197.5,665.0 L 1207.5,665.0" stroke="#555555" stroke-width="2" fill="none" marker-end="url(#arrow-default)"/>
  <path d="M 1432.5,665.0 L 1432.5,665.0" stroke="#555555" stroke-width="2" fill="none" marker-end="url(#arrow-default)"/>
  <path d="M 1438.4,612.5 Q 1335.8,500.1 1197.7,436.0" stroke="#148F77" stroke-width="2" fill="none" marker-end="url(#arrow-default)"/>
  <rect x="1268.9" y="494.2" width="116.0" height="16" fill="#FFFFFF" rx="3" opacity="0.85"/>
  <text x="1326.9" y="506.2" font-size="12" fill="#777777" text-anchor="middle">提前完成才隐藏延迟</text>
  <path d="M 320.8,789.0 Q 354.9,610.7 329.1,431.0" stroke="#5D6D7E" stroke-width="2" fill="none" marker-end="url(#arrow-default)" stroke-dasharray="8,4"/>
  <rect x="285.5" y="592.3" width="108.8" height="16" fill="#FFFFFF" rx="3" opacity="0.85"/>
  <text x="339.9" y="604.3" font-size="12" fill="#777777" text-anchor="middle">flush boundary</text>
  <path d="M 958.4,793.0 Q 1064.1,626.5 1114.8,436.0" stroke="#1F4E79" stroke-width="2" fill="none" marker-end="url(#arrow-default)" stroke-dasharray="8,4"/>
  <path d="M 1080.8,793.0 Q 1265.2,769.3 1432.5,688.1" stroke="#1F4E79" stroke-width="2" fill="none" marker-end="url(#arrow-default)" stroke-dasharray="8,4"/>
  <path d="M 1163.4,436.0 Q 1248.2,630.3 1384.0,793.0" stroke="#148F77" stroke-width="2" fill="none" marker-end="url(#arrow-default)"/>
  <rect x="1195.8" y="604.4" width="130.4" height="16" fill="#FFFFFF" rx="3" opacity="0.85"/>
  <text x="1261.0" y="616.4" font-size="12" fill="#777777" text-anchor="middle">hit / fold result</text>
  <rect x="75.0" y="114.0" width="150.0" height="62.0" fill="#FFFFFF" stroke="#5D6D7E" stroke-width="2" rx="8"/>
  <text x="150.0" y="150.2" font-size="15" fill="#333333" text-anchor="middle" font-weight="bold">上游记录</text>
  <rect x="302.5" y="114.0" width="175.0" height="62.0" fill="#FFFFFF" stroke="#5D6D7E" stroke-width="2" rx="8"/>
  <text x="390.0" y="150.2" font-size="15" fill="#333333" text-anchor="middle" font-weight="bold">setCurrentKey</text>
  <rect x="545.0" y="109.0" width="220.0" height="72.0" fill="#FDEDEC" stroke="#C0392B" stroke-width="2" rx="8"/>
  <text x="655.0" y="141.8" font-size="15" fill="#333333" text-anchor="middle" font-weight="bold">同步 RocksDB get</text>
  <text x="655.0" y="158.8" font-size="15" fill="#333333" text-anchor="middle" font-weight="bold">关键路径等待</text>
  <rect x="830.0" y="109.0" width="190.0" height="72.0" fill="#FFFFFF" stroke="#5D6D7E" stroke-width="2" rx="8"/>
  <text x="925.0" y="141.8" font-size="15" fill="#333333" text-anchor="middle" font-weight="bold">业务函数</text>
  <text x="925.0" y="158.8" font-size="15" fill="#333333" text-anchor="middle" font-weight="bold">逐条读改写</text>
  <rect x="1085.0" y="114.0" width="190.0" height="62.0" fill="#FFFFFF" stroke="#5D6D7E" stroke-width="2" rx="8"/>
  <text x="1180.0" y="150.2" font-size="15" fill="#333333" text-anchor="middle" font-weight="bold">序列化 / Shuffle</text>
  <rect x="1375.0" y="114.0" width="130.0" height="62.0" fill="#D6EAF8" stroke="#1F4E79" stroke-width="2" rx="8"/>
  <text x="1440.0" y="150.2" font-size="15" fill="#333333" text-anchor="middle" font-weight="bold">下游</text>
  <rect x="45.0" y="359.0" width="140.0" height="62.0" fill="#FFFFFF" stroke="#1F4E79" stroke-width="2" rx="8"/>
  <text x="115.0" y="395.2" font-size="15" fill="#333333" text-anchor="middle" font-weight="bold">上游记录</text>
  <rect x="210.0" y="349.0" width="240.0" height="82.0" fill="#D6EAF8" stroke="#1F4E79" stroke-width="2" rx="8"/>
  <text x="330.0" y="386.8" font-size="15" fill="#333333" text-anchor="middle" font-weight="bold">Mailbox Lookahead</text>
  <text x="330.0" y="403.8" font-size="15" fill="#333333" text-anchor="middle" font-weight="bold">保序缓冲一段未来访问</text>
  <polygon points="595.0,340.0 670.0,390.0 595.0,440.0 520.0,390.0" fill="#FEF5E7" stroke="#E67E22" stroke-width="2"/>
  <text x="595.0" y="386.9" font-size="14" fill="#333333" text-anchor="middle" font-weight="bold">可安全</text>
  <text x="595.0" y="402.9" font-size="14" fill="#333333" text-anchor="middle" font-weight="bold">LocalPreAgg?</text>
  <rect x="722.5" y="284.0" width="255.0" height="82.0" fill="#FDEBD0" stroke="#E67E22" stroke-width="2" rx="8"/>
  <text x="850.0" y="321.8" font-size="15" fill="#333333" text-anchor="middle" font-weight="bold">按 key 首见顺序分组</text>
  <text x="850.0" y="338.8" font-size="15" fill="#333333" text-anchor="middle" font-weight="bold">批内 fold / 减少状态写</text>
  <rect x="727.5" y="424.0" width="245.0" height="82.0" fill="#D6EAF8" stroke="#1F4E79" stroke-width="2" rx="8"/>
  <text x="850.0" y="461.8" font-size="15" fill="#333333" text-anchor="middle" font-weight="bold">Mailbox 保序重放</text>
  <text x="850.0" y="478.8" font-size="15" fill="#333333" text-anchor="middle" font-weight="bold">每条消息只处理一次</text>
  <rect x="1002.5" y="344.0" width="265.0" height="92.0" fill="#D5F5E3" stroke="#148F77" stroke-width="2" rx="8"/>
  <text x="1135.0" y="386.8" font-size="15" fill="#333333" text-anchor="middle" font-weight="bold">CacheKit 状态访问门</text>
  <text x="1135.0" y="403.8" font-size="15" fill="#333333" text-anchor="middle" font-weight="bold">VCache → MSnapshot → staging</text>
  <rect x="1290.0" y="344.0" width="260.0" height="92.0" fill="#FCF3CF" stroke="#B7950B" stroke-width="2" rx="8"/>
  <text x="1420.0" y="386.8" font-size="15" fill="#333333" text-anchor="middle" font-weight="bold">权威 RocksDB 读写</text>
  <text x="1420.0" y="403.8" font-size="15" fill="#333333" text-anchor="middle" font-weight="bold">SST/Mem Bloom 先拒绝空查</text>
  <rect x="395.0" y="624.0" width="250.0" height="82.0" fill="#E8F8F5" stroke="#0E9384" stroke-width="2" rx="8"/>
  <text x="520.0" y="661.8" font-size="15" fill="#333333" text-anchor="middle" font-weight="bold">提取未来 serialized key</text>
  <text x="520.0" y="678.8" font-size="15" fill="#333333" text-anchor="middle" font-weight="bold">不执行业务、不 emit</text>
  <polygon points="785.0,615.0 880.0,665.0 785.0,715.0 690.0,665.0" fill="#F4ECF7" stroke="#7D3C98" stroke-width="2"/>
  <text x="785.0" y="661.9" font-size="14" fill="#333333" text-anchor="middle" font-weight="bold">自适应门槛</text>
  <text x="785.0" y="677.9" font-size="14" fill="#333333" text-anchor="middle" font-weight="bold">batch / bytes / reuse</text>
  <rect x="912.5" y="615.0" width="285.0" height="100.0" fill="#E8DAEF" stroke="#7D3C98" stroke-width="2" rx="8"/>
  <text x="1055.0" y="653.2" font-size="15" fill="#333333" text-anchor="middle" font-weight="bold">Kunpeng Native Worker</text>
  <text x="1055.0" y="670.2" font-size="15" fill="#333333" text-anchor="middle" font-weight="bold">CRC32 + NEON/SVE1 + 128B layout</text>
  <text x="1055.0" y="687.2" font-size="15" fill="#333333" text-anchor="middle" font-weight="bold">x86 走 Java fallback</text>
  <rect x="1207.5" y="620.0" width="225.0" height="90.0" fill="#FCF3CF" stroke="#B7950B" stroke-width="2" rx="8"/>
  <text x="1320.0" y="661.8" font-size="15" fill="#333333" text-anchor="middle" font-weight="bold">Chunked MultiGet</text>
  <text x="1320.0" y="678.8" font-size="15" fill="#333333" text-anchor="middle" font-weight="bold">Bloom / MemTable / SST</text>
  <rect x="1432.5" y="612.5" width="155.0" height="105.0" fill="#D5F5E3" stroke="#148F77" stroke-width="2" rx="8"/>
  <text x="1510.0" y="654.5" font-size="13" fill="#333333" text-anchor="middle" font-weight="bold">Staging publish</text>
  <text x="1510.0" y="669.5" font-size="13" fill="#333333" text-anchor="middle" font-weight="bold">{value, writeGen}</text>
  <text x="1510.0" y="684.5" font-size="13" fill="#333333" text-anchor="middle" font-weight="bold">mailbox 校验后消费</text>
  <rect x="117.5" y="624.0" width="235.0" height="82.0" fill="#FDEDEC" stroke="#C0392B" stroke-width="2" rx="8"/>
  <text x="235.0" y="661.8" font-size="15" fill="#333333" text-anchor="middle" font-weight="bold">下游背压 / I/O 等待</text>
  <text x="235.0" y="678.8" font-size="15" fill="#333333" text-anchor="middle" font-weight="bold">提供 overlap 窗口</text>
  <rect x="182.5" y="789.0" width="275.0" height="72.0" fill="#FFFFFF" stroke="#5D6D7E" stroke-width="2" rx="8"/>
  <text x="320.0" y="821.8" font-size="15" fill="#333333" text-anchor="middle" font-weight="bold">Watermark / status / latency</text>
  <text x="320.0" y="838.8" font-size="15" fill="#333333" text-anchor="middle" font-weight="bold">先 flush batch 再转发</text>
  <rect x="660.0" y="793.0" width="560.0" height="84.0" fill="#FFFFFF" stroke="#1F4E79" stroke-width="2" rx="8"/>
  <text x="940.0" y="823.2" font-size="15" fill="#333333" text-anchor="middle" font-weight="bold">正确性护栏</text>
  <text x="940.0" y="840.2" font-size="15" fill="#333333" text-anchor="middle" font-weight="bold">arrival order · writeGen · inFlight drop release</text>
  <text x="940.0" y="857.2" font-size="15" fill="#333333" text-anchor="middle" font-weight="bold">失败/过期一律 fallback，不改变状态语义</text>
  <rect x="1255.0" y="793.0" width="310.0" height="84.0" fill="#1F4E79" stroke="#1F4E79" stroke-width="2" rx="8"/>
  <text x="1410.0" y="831.8" font-size="15" fill="#FFFFFF" text-anchor="middle" font-weight="bold">更少 JNI / RocksDB / 写放大</text>
  <text x="1410.0" y="848.8" font-size="15" fill="#FFFFFF" text-anchor="middle" font-weight="bold">同一业务结果与下游顺序</text>
  <text x="800.0" y="32.0" font-size="25" fill="#17365D" text-anchor="middle">第三阶段：Mailbox × Prefetch × LocalPreAgg × Cache/Bloom × Kunpeng Native</text>
</svg>
